<svg width="14" height="14" viewBox="0 0 14 14" fill="none" xmlns="http://www.w3.org/2000/svg">
<path d="M2.24237 4.71847C3.1421 4.50905 3.88988 4.43121 4.45418 4.52202C4.7405 4.56835 5.00366 4.66195 5.21585 4.82596C5.43453 4.99554 5.57723 5.22257 5.64024 5.49038C5.6875 5.69053 5.69305 5.89996 5.66618 6.11402C5.64672 6.34105 5.57538 6.59588 5.46882 6.86924C5.37616 7.12222 5.30388 7.31404 5.25199 7.43913L5.25014 7.44377L5.24828 7.4484C5.19454 7.57072 5.08057 7.80516 4.91285 8.14432C4.89432 8.18324 4.87764 8.21938 4.86096 8.25552C6.12856 7.06847 7.10335 6.18074 7.78534 5.59602C7.85576 5.53578 7.94471 5.45794 8.0522 5.3625L8.0559 5.35972C8.32647 5.12527 8.52106 4.96126 8.63133 4.87508L8.63689 4.87137L8.64245 4.86766C8.77403 4.77129 8.92321 4.68511 9.08259 4.64805C9.17988 4.62581 9.27625 4.62581 9.36242 4.636C9.4662 4.64434 9.57184 4.67121 9.67006 4.72218C9.78125 4.76944 9.94619 4.87322 9.99715 5.08728C10.0463 5.29671 10.0027 5.52003 9.93785 5.71833L9.93599 5.72389L9.93414 5.72945C9.70156 6.3846 9.54496 6.92299 9.46064 7.35018C9.37447 7.78756 9.37169 8.06648 9.40875 8.22401C9.42265 8.28146 9.4384 8.31297 9.4486 8.3278C9.45694 8.34077 9.4625 8.34355 9.46435 8.34448C9.46991 8.34726 9.52551 8.3732 9.68766 8.33614C9.98418 8.26756 10.3863 8.07019 10.9024 7.70508C11.4139 7.34369 11.8976 6.92762 12.3544 6.45502C12.8001 5.98892 13.1513 5.48945 13.4117 4.95848L13.4136 4.95384C13.4543 4.87322 13.5118 4.75647 13.5794 4.61654C12.3915 1.3232 8.89819 -0.631113 5.40581 0.185271C2.75385 0.805204 0.810758 2.85682 0.20105 5.33192C0.983107 5.06319 1.88562 4.80094 2.24237 4.71847Z" fill="black"/>
<path d="M13.3098 7.07585L13.3079 7.0777C12.7232 7.65223 12.0904 8.16653 11.4102 8.62244C10.7431 9.07928 10.1334 9.38786 9.58758 9.51388C9.22065 9.59914 8.85371 9.6047 8.54144 9.44624C8.21342 9.28037 8.02903 8.97735 7.94656 8.62893C7.89189 8.39726 7.87799 8.13224 7.89282 7.84312V7.83664L7.89374 7.83015C7.91784 7.54752 7.94934 7.29454 7.99104 7.07122C8.00586 6.98689 8.02347 6.89793 8.042 6.80434C7.63337 7.12126 7.21732 7.47895 6.79386 7.87556C6.06555 8.5585 5.52997 9.09689 5.18249 9.49442C4.83779 9.89845 4.53386 10.2691 4.27256 10.6073C4.04369 10.9215 3.75829 11.1439 3.41174 11.2245C3.25607 11.2606 3.07724 11.268 2.90396 11.1985L2.8984 11.1967L2.89284 11.1939C2.69825 11.1096 2.58428 10.9465 2.54258 10.7676C2.50645 10.6157 2.5259 10.4683 2.56853 10.3395L2.57038 10.3358L2.57224 10.3321C2.59633 10.2645 2.7659 9.85211 3.06797 9.12191C3.36819 8.39726 3.6017 7.71617 3.76849 7.07863L3.77034 7.07307C3.94732 6.43368 3.97419 5.99815 3.91026 5.72849C3.89358 5.65807 3.86949 5.62656 3.8491 5.60803C3.82779 5.58857 3.78424 5.5617 3.69436 5.54502L3.6888 5.54409L3.68324 5.54316C3.49143 5.50332 3.11337 5.52463 2.49903 5.66733C2.32668 5.70718 1.5891 5.95089 0.81724 6.2085C0.771836 6.22333 0.726432 6.23908 0.681029 6.25391C0.45123 6.33082 0.225138 6.40588 0.0194307 6.47352C-0.0324594 7.16666 0.018504 7.88019 0.185293 8.59279C1.06557 12.3569 4.82945 14.6948 8.59333 13.8145C12.0403 13.0083 14.291 9.78354 13.9695 6.35491C13.7657 6.60048 13.5461 6.84141 13.3098 7.07585Z" fill="black"/>
</svg>
