<svg width="29" height="28" viewBox="0 0 29 28" fill="none" xmlns="http://www.w3.org/2000/svg">
<path d="M18.6428 10C20.291 10 21.8716 10.6321 23.037 11.7574C24.2024 12.8826 24.8571 14.4087 24.8571 16V23H20.7143V16C20.7143 15.4696 20.496 14.9609 20.1075 14.5858C19.7191 14.2107 19.1922 14 18.6428 14C18.0934 14 17.5666 14.2107 17.1781 14.5858C16.7896 14.9609 16.5714 15.4696 16.5714 16V23H12.4285V16C12.4285 14.4087 13.0833 12.8826 14.2487 11.7574C15.4141 10.6321 16.9947 10 18.6428 10Z" stroke="#999999" stroke-linecap="round" stroke-linejoin="round"/>
<path d="M8.28568 11H4.14282V23H8.28568V11Z" stroke="#999999" stroke-linecap="round" stroke-linejoin="round"/>
<path d="M6.21425 8C7.35827 8 8.28568 7.10457 8.28568 6C8.28568 4.89543 7.35827 4 6.21425 4C5.07023 4 4.14282 4.89543 4.14282 6C4.14282 7.10457 5.07023 8 6.21425 8Z" stroke="#999999" stroke-linecap="round" stroke-linejoin="round"/>
</svg>
