<svg width="20" height="20" viewBox="0 0 20 20" fill="none" xmlns="http://www.w3.org/2000/svg">
<path d="M6.42855 9.28569V6.42855C6.42855 5.48134 6.80483 4.57294 7.4746 3.90316C8.14437 3.23339 9.05278 2.85712 9.99998 2.85712C10.9472 2.85712 11.8556 3.23339 12.5254 3.90316C13.1951 4.57294 13.5714 5.48134 13.5714 6.42855V9.28569M4.99998 9.28569H15C15.789 9.28569 16.4286 9.92528 16.4286 10.7143V15.7143C16.4286 16.5032 15.789 17.1428 15 17.1428H4.99998C4.211 17.1428 3.57141 16.5032 3.57141 15.7143V10.7143C3.57141 9.92528 4.211 9.28569 4.99998 9.28569Z" stroke="#BDBDBD" stroke-width="2" stroke-linecap="round" stroke-linejoin="round"/>
</svg>
